<svg width="402" height="330" viewBox="0 0 402 330" fill="none" xmlns="http://www.w3.org/2000/svg">
<path opacity="0.5" fill-rule="evenodd" clip-rule="evenodd" d="M202.861 11L401.999 187.686L352.46 313.511H13.0798L1.08203 137.398L202.861 11Z" fill="#F7F9FF"/>
<path fill-rule="evenodd" clip-rule="evenodd" d="M1.13321 314.195H360.993C361.375 314.195 361.661 313.899 361.661 313.52C361.661 313.141 361.375 312.828 360.993 312.828H1.13321C0.751288 312.828 0.464844 313.144 0.464844 313.52C0.464844 313.895 0.751288 314.195 1.13321 314.195Z" fill="#303030"/>
<path fill-rule="evenodd" clip-rule="evenodd" d="M394.106 161.11C394.106 159.667 393.527 158.29 392.523 157.269C391.499 156.271 390.119 155.691 388.684 155.691H331.744C330.311 155.691 328.932 156.268 327.908 157.269C326.9 158.29 326.324 159.667 326.324 161.11V214.254C326.324 215.697 326.9 217.074 327.908 218.072C328.932 219.093 330.311 219.669 331.744 219.669H388.684C390.119 219.669 391.499 219.093 392.523 218.072C393.527 217.074 394.106 215.697 394.106 214.254V161.11Z" fill="white"/>
<path fill-rule="evenodd" clip-rule="evenodd" d="M394.774 161.111C394.774 159.491 394.142 157.936 393.006 156.806C391.851 155.653 390.306 155.008 388.683 155.008H331.743C330.124 155.008 328.576 155.65 327.44 156.806C326.284 157.939 325.652 159.494 325.652 161.111V214.256C325.652 215.876 326.284 217.431 327.44 218.561C328.576 219.694 330.124 220.34 331.743 220.34H388.683C390.306 220.34 391.851 219.694 393.006 218.561C394.142 217.431 394.774 215.876 394.774 214.256V161.111ZM393.415 161.111V214.256C393.415 215.498 392.914 216.72 392.038 217.609C391.143 218.495 389.951 218.986 388.683 218.986H331.743C330.476 218.986 329.284 218.495 328.392 217.609C327.516 216.72 327.012 215.498 327.012 214.256V161.111C327.012 159.847 327.516 158.648 328.392 157.758C329.284 156.869 330.476 156.381 331.743 156.381H388.683C389.951 156.381 391.143 156.869 392.038 157.758C392.914 158.648 393.415 159.847 393.415 161.111Z" fill="#303030"/>
<path fill-rule="evenodd" clip-rule="evenodd" d="M394.096 161.421C394.096 159.915 393.503 158.453 392.417 157.382C391.347 156.315 389.885 155.699 388.38 155.699H332.079C330.555 155.699 329.113 156.312 328.023 157.382C326.956 158.45 326.363 159.915 326.363 161.421V173.572H394.096V161.421Z" fill="#303030"/>
<path d="M342.38 167.685C343.915 167.685 345.159 166.44 345.159 164.905C345.159 163.37 343.915 162.125 342.38 162.125C340.846 162.125 339.602 163.37 339.602 164.905C339.602 166.44 340.846 167.685 342.38 167.685Z" fill="white"/>
<path d="M378.08 167.685C379.614 167.685 380.858 166.44 380.858 164.905C380.858 163.37 379.614 162.125 378.08 162.125C376.545 162.125 375.301 163.37 375.301 164.905C375.301 166.44 376.545 167.685 378.08 167.685Z" fill="white"/>
<path d="M357.83 203.082V205.898H341.608V203.701L350.801 194.83C351.917 193.753 352.671 192.824 353.056 192.037C353.444 191.25 353.639 190.463 353.639 189.669C353.639 188.48 353.224 187.564 352.397 186.905C351.568 186.247 350.379 185.927 348.832 185.927C346.339 185.927 344.413 186.737 343.06 188.378L340.867 186.467C341.75 185.397 342.905 184.557 344.334 183.957C345.763 183.351 347.36 183.055 349.121 183.055C351.489 183.055 353.369 183.615 354.768 184.744C356.164 185.874 356.862 187.409 356.862 189.346C356.862 190.545 356.605 191.688 356.088 192.759C355.571 193.836 354.593 195.061 353.155 196.444L346.254 203.082H357.83Z" fill="#303030"/>
<path d="M379.501 200.342H375.214V205.899H372.083V200.342H359.539V198.082L371.086 183.312H374.569L363.506 197.572H372.182V192.671H375.214V197.572H379.501V200.342Z" fill="#303030"/>
<path fill-rule="evenodd" clip-rule="evenodd" d="M307.601 142.732C307.601 141.784 307.226 140.891 306.554 140.219C305.902 139.567 304.99 139.191 304.062 139.191H275.812C274.861 139.191 273.972 139.567 273.3 140.219C272.645 140.891 272.27 141.784 272.27 142.732V180.158C272.27 181.087 272.645 181.999 273.3 182.652C273.972 183.323 274.861 183.679 275.812 183.679H304.062C304.99 183.679 305.902 183.323 306.554 182.652C307.226 181.999 307.601 181.087 307.601 180.158V142.732Z" fill="white"/>
<path fill-rule="evenodd" clip-rule="evenodd" d="M308.276 142.732C308.276 141.605 307.838 140.535 307.048 139.744C306.258 138.954 305.188 138.516 304.062 138.516H275.812C274.683 138.516 273.616 138.95 272.826 139.744C272.032 140.535 271.578 141.605 271.578 142.732V180.157C271.578 181.264 272.032 182.335 272.826 183.125C273.616 183.916 274.683 184.37 275.812 184.37H304.062C305.188 184.37 306.258 183.916 307.048 183.125C307.838 182.335 308.276 181.264 308.276 180.157V142.732ZM306.91 142.732V180.157C306.91 180.908 306.613 181.643 306.08 182.177C305.543 182.71 304.812 183.01 304.062 183.01H275.812C275.039 183.01 274.327 182.714 273.794 182.177C273.261 181.643 272.945 180.912 272.945 180.157V142.732C272.945 141.981 273.261 141.246 273.794 140.713C274.327 140.179 275.039 139.883 275.812 139.883H304.062C304.812 139.883 305.543 140.179 306.08 140.713C306.613 141.246 306.91 141.981 306.91 142.732Z" fill="#90CE05"/>
<path fill-rule="evenodd" clip-rule="evenodd" d="M290.199 144.006L295.8 134.25C295.997 133.934 295.879 133.499 295.563 133.318C295.227 133.14 294.809 133.239 294.611 133.575L289.014 143.331C288.816 143.647 288.935 144.062 289.271 144.263C289.587 144.441 290.002 144.342 290.199 144.006Z" fill="#303030"/>
<path fill-rule="evenodd" clip-rule="evenodd" d="M277.832 158.278H291.413C291.782 158.278 292.092 157.962 292.092 157.586C292.092 157.211 291.782 156.914 291.413 156.914H277.832C277.447 156.914 277.141 157.211 277.141 157.586C277.141 157.962 277.447 158.278 277.832 158.278Z" fill="#303030"/>
<path fill-rule="evenodd" clip-rule="evenodd" d="M277.85 166.789H302.092C302.451 166.789 302.773 166.473 302.773 166.098C302.773 165.722 302.451 165.426 302.092 165.426H277.85C277.471 165.426 277.168 165.722 277.168 166.098C277.168 166.473 277.471 166.789 277.85 166.789Z" fill="#303030"/>
<path fill-rule="evenodd" clip-rule="evenodd" d="M277.85 175.317H302.092C302.451 175.317 302.773 175.001 302.773 174.625C302.773 174.25 302.451 173.953 302.092 173.953H277.85C277.471 173.953 277.168 174.25 277.168 174.625C277.168 175.001 277.471 175.317 277.85 175.317Z" fill="#303030"/>
<path fill-rule="evenodd" clip-rule="evenodd" d="M74.8359 168.092V172.414C74.8359 172.789 75.1323 173.099 75.5076 173.099C75.8829 173.099 76.1891 172.789 76.1891 172.414V168.092C76.1891 167.716 75.8928 167.41 75.5076 167.41C75.1224 167.41 74.8359 167.72 74.8359 168.092Z" fill="#90CE05"/>
<path fill-rule="evenodd" clip-rule="evenodd" d="M74.8359 177.307V181.628C74.8359 182.004 75.1323 182.31 75.5076 182.31C75.8829 182.31 76.1891 182.001 76.1891 181.628V177.307C76.1891 176.931 75.8928 176.625 75.5076 176.625C75.1224 176.625 74.8359 176.935 74.8359 177.307Z" fill="#90CE05"/>
<path fill-rule="evenodd" clip-rule="evenodd" d="M82.2858 174.184H77.9661C77.5907 174.184 77.2812 174.48 77.2812 174.856C77.2812 175.231 77.5907 175.537 77.9661 175.537H82.2858C82.6611 175.537 82.9673 175.241 82.9673 174.856C82.9673 174.47 82.6578 174.184 82.2858 174.184Z" fill="#90CE05"/>
<path fill-rule="evenodd" clip-rule="evenodd" d="M73.0553 174.184H68.7356C68.3603 174.184 68.0508 174.48 68.0508 174.856C68.0508 175.231 68.3603 175.537 68.7356 175.537H73.0553C73.4307 175.537 73.7369 175.241 73.7369 174.856C73.7369 174.47 73.4274 174.184 73.0553 174.184Z" fill="#90CE05"/>
<path fill-rule="evenodd" clip-rule="evenodd" d="M244.621 175.609C242.879 175.609 241.457 177.016 241.457 178.775C241.457 180.534 242.879 181.921 244.621 181.921C246.363 181.921 247.765 180.514 247.765 178.775C247.765 177.036 246.363 175.609 244.621 175.609ZM244.621 176.973C245.612 176.973 246.402 177.783 246.402 178.775C246.402 179.766 245.612 180.557 244.621 180.557C243.63 180.557 242.82 179.766 242.82 178.775C242.82 177.783 243.633 176.973 244.621 176.973Z" fill="#303030"/>
<path fill-rule="evenodd" clip-rule="evenodd" d="M107.033 139.355C104.778 139.355 102.957 141.177 102.957 143.433C102.957 145.69 104.778 147.531 107.033 147.531C109.288 147.531 111.129 145.69 111.129 143.433C111.129 141.177 109.288 139.355 107.033 139.355ZM107.033 140.722C108.538 140.722 109.763 141.928 109.763 143.433C109.763 144.939 108.538 146.164 107.033 146.164C105.528 146.164 104.323 144.935 104.323 143.433C104.323 141.931 105.532 140.722 107.033 140.722Z" fill="#303030"/>
<path fill-rule="evenodd" clip-rule="evenodd" d="M116.801 94.1076V100.175C116.801 100.547 117.11 100.857 117.482 100.857C117.854 100.857 118.164 100.547 118.164 100.175V94.1076C118.164 93.7222 117.871 93.4258 117.482 93.4258C117.094 93.4258 116.801 93.7189 116.801 94.1076Z" fill="#90CE05"/>
<path fill-rule="evenodd" clip-rule="evenodd" d="M116.801 107.037V113.101C116.801 113.474 117.11 113.783 117.482 113.783C117.854 113.783 118.164 113.474 118.164 113.101V107.037C118.164 106.649 117.871 106.355 117.482 106.355C117.094 106.355 116.801 106.649 116.801 107.037Z" fill="#90CE05"/>
<path fill-rule="evenodd" clip-rule="evenodd" d="M126.981 102.914H120.92C120.548 102.914 120.238 103.224 120.238 103.596C120.238 103.968 120.548 104.278 120.92 104.278H126.981C127.37 104.278 127.663 103.985 127.663 103.596C127.663 103.207 127.37 102.914 126.981 102.914Z" fill="#90CE05"/>
<path fill-rule="evenodd" clip-rule="evenodd" d="M114.04 102.914H107.978C107.606 102.914 107.297 103.224 107.297 103.596C107.297 103.968 107.606 104.278 107.978 104.278H114.04C114.428 104.278 114.721 103.985 114.721 103.596C114.721 103.207 114.428 102.914 114.04 102.914Z" fill="#90CE05"/>
<path fill-rule="evenodd" clip-rule="evenodd" d="M225.372 190.434C225.372 190.434 230.337 192.93 239.634 212.009C248.932 231.087 259.597 257.567 259.597 257.567L247.49 306.788L221.078 268.967V190.434H225.372Z" fill="white"/>
<path fill-rule="evenodd" clip-rule="evenodd" d="M225.668 189.821C225.589 189.782 225.47 189.742 225.372 189.742H221.078C220.703 189.742 220.387 190.058 220.387 190.434V268.968C220.387 269.106 220.426 269.244 220.525 269.363L246.914 307.164C247.072 307.382 247.349 307.5 247.609 307.441C247.866 307.401 248.083 307.204 248.142 306.947L260.249 257.745C260.288 257.587 260.268 257.449 260.229 257.311C260.229 257.311 249.565 230.808 240.247 211.709C230.791 192.295 225.668 189.821 225.668 189.821ZM225.194 191.109C225.984 191.623 230.712 195.243 239.022 212.306C247.846 230.393 257.875 255.133 258.882 257.627L247.171 305.165C247.171 305.165 223.669 271.501 221.753 268.77V191.109H225.194Z" fill="#303030"/>
<path fill-rule="evenodd" clip-rule="evenodd" d="M105.016 193.187C105.016 193.187 110.04 188.417 125.412 178.977L164.323 181.806L221.118 187.623C221.674 240.566 221.931 278.009 221.118 310.487L109.842 307.558L105.016 193.187Z" fill="white"/>
<path fill-rule="evenodd" clip-rule="evenodd" d="M104.542 192.689C104.403 192.827 104.324 193.028 104.324 193.226L109.151 307.598C109.171 307.953 109.467 308.23 109.823 308.25L221.098 311.158C221.276 311.178 221.454 311.099 221.572 310.98C221.714 310.862 221.789 310.684 221.789 310.506C222.603 278.008 222.346 240.566 221.789 187.623C221.789 187.267 221.513 186.99 221.177 186.951L164.382 181.111H164.362L125.452 178.281C125.314 178.281 125.175 178.321 125.057 178.38C109.589 187.88 104.542 192.689 104.542 192.689ZM105.707 193.483C106.813 192.471 112.256 187.86 125.587 179.668L164.26 182.478C164.26 182.478 214.329 187.623 220.423 188.236C220.976 240.467 221.233 277.593 220.443 309.795C211.58 309.557 119.058 307.123 110.491 306.906C110.116 298.058 105.961 199.794 105.704 193.483H105.707Z" fill="#303030"/>
<path fill-rule="evenodd" clip-rule="evenodd" d="M180.09 186.617C179.556 226.497 177.459 262.694 173.027 293.41H190.533C194.669 261.228 195.676 226.754 195.044 191.051L180.09 186.617Z" fill="#90CE05"/>
<path fill-rule="evenodd" clip-rule="evenodd" d="M169.098 188.617C169.098 188.617 167.432 224.198 166.928 234.801C166.895 235.562 167.182 236.326 167.702 236.883C168.242 237.44 168.966 237.74 169.74 237.74C171.021 237.74 172.061 236.745 172.114 235.47C172.552 225.796 174.201 188.617 174.201 188.617H169.101H169.098Z" fill="#303030"/>
<path fill-rule="evenodd" clip-rule="evenodd" d="M199.898 189.174C199.898 189.174 199.882 224.155 199.888 235.147C199.892 235.984 200.234 236.787 200.853 237.364C201.469 237.914 202.292 238.191 203.131 238.118C204.238 238.026 205.107 237.094 205.087 235.98C205.081 226.797 204.988 188.742 204.988 188.742L199.898 189.174Z" fill="#303030"/>
<path fill-rule="evenodd" clip-rule="evenodd" d="M168.854 139.926C168.854 139.926 144.819 136.978 139.198 146.813C136.864 150.872 136.232 160.292 136.232 160.292C136.232 160.292 122.858 157.067 123.194 180.421L125.745 178.857C160.84 201.914 195.516 206.447 225.171 190.237C225.171 190.237 229.82 174.087 221.53 171.732C221.53 171.732 224.183 153.326 209.542 152.179L168.85 139.929L168.854 139.926Z" fill="#90CE05"/>
<path fill-rule="evenodd" clip-rule="evenodd" d="M181.978 200.052C181.978 200.052 187.051 201.103 192.941 200.431C193.3 200.381 193.577 200.052 193.528 199.676C193.498 199.301 193.152 199.021 192.777 199.07C187.134 199.726 182.241 198.728 182.241 198.728C181.882 198.645 181.52 198.876 181.441 199.251C181.375 199.627 181.605 199.989 181.981 200.052H181.978Z" fill="#303030"/>
<path d="M235.882 308.309H190.219V314.33H235.882V308.309Z" fill="#303030"/>
<path fill-rule="evenodd" clip-rule="evenodd" d="M355.888 246.857C356.705 245.105 356.501 242.858 355.361 241.106C354.219 239.357 352.306 238.355 350.229 238.355H271.628C269.224 238.355 267.025 239.604 266.05 241.854C259.126 257.111 232.855 314.386 232.855 314.386H326.892C326.892 314.386 347.338 266.864 355.888 246.857Z" fill="#303030"/>
<path fill-rule="evenodd" clip-rule="evenodd" d="M242.089 308.821L270.737 246.754C271.277 245.607 272.439 244.87 273.716 244.87H346.539C346.914 244.87 347.227 244.56 347.227 244.185C347.227 243.809 346.914 243.496 346.539 243.496H273.716C271.899 243.496 270.263 244.544 269.512 246.197C264.211 257.653 240.864 308.248 240.864 308.248C240.7 308.594 240.848 309.002 241.19 309.164C241.533 309.312 241.944 309.164 242.089 308.821Z" fill="white"/>
<path fill-rule="evenodd" clip-rule="evenodd" d="M44.9461 285.307V269.196H42.7302C41.782 269.196 40.8898 268.821 40.2181 268.168C39.5662 267.497 39.1908 266.604 39.1908 265.655V256.175H31.335C28.2697 256.175 25.7773 253.682 25.7773 250.615V235.315H30.0905V248.039C30.0905 248.675 30.3473 249.288 30.7819 249.742C31.2362 250.177 31.8486 250.434 32.4643 250.434H40.4552C41.0873 250.434 41.703 250.177 42.1376 249.742C42.592 249.288 42.8488 248.675 42.8488 248.039V233.73H46.9841V260.392C46.9841 261.656 47.9916 262.668 49.2394 262.668H53.9674C55.235 262.668 56.2425 261.656 56.2425 260.392V244.024H60.852V265.655C60.852 266.604 60.4766 267.497 59.8214 268.168C59.1498 268.821 58.2575 269.196 57.3093 269.196H54.0662V285.307H44.9461Z" fill="white"/>
<path fill-rule="evenodd" clip-rule="evenodd" d="M44.2742 285.307C44.2742 285.683 44.5705 285.979 44.9459 285.979H54.066C54.4413 285.979 54.7376 285.683 54.7376 285.307V269.892H57.3091C58.4384 269.892 59.5051 269.434 60.2953 268.643C61.0855 267.853 61.5432 266.782 61.5432 265.656V244.024C61.5432 243.649 61.2271 243.352 60.8518 243.352H56.2423C55.867 243.352 55.5509 243.649 55.5509 244.024V260.392C55.5509 261.281 54.8595 261.973 53.9672 261.973H49.2392C48.37 261.973 47.6556 261.281 47.6556 260.392V233.731C47.6556 233.355 47.3592 233.039 46.9839 233.039H42.8486C42.4732 233.039 42.1571 233.355 42.1571 233.731V248.04C42.1571 248.497 41.9793 248.932 41.6633 249.248C41.3472 249.565 40.9126 249.743 40.4549 249.743H32.4641C32.0295 249.743 31.5949 249.565 31.2755 249.248C30.9595 248.932 30.7817 248.497 30.7817 248.04V235.315C30.7817 234.94 30.4656 234.623 30.0903 234.623H25.7771C25.4018 234.623 25.1055 234.94 25.1055 235.315V250.615C25.1055 254.058 27.8942 256.848 31.3381 256.848H38.4992V265.656C38.4992 266.782 38.9536 267.853 39.7438 268.643C40.534 269.434 41.604 269.892 42.73 269.892H44.2742V285.307ZM45.6406 284.615V269.197C45.6406 268.821 45.3245 268.525 44.9492 268.525H42.7333C41.9629 268.525 41.2484 268.208 40.6953 267.675C40.1619 267.141 39.8656 266.426 39.8656 265.656V256.176C39.8656 255.8 39.5693 255.484 39.1939 255.484H31.3381C28.6482 255.484 26.4718 253.307 26.4718 250.615V235.987H29.4186V248.04C29.4186 248.873 29.7347 249.644 30.3076 250.217C30.8805 250.793 31.6542 251.11 32.4641 251.11H40.4549C41.2649 251.11 42.0584 250.793 42.6313 250.217C43.2041 249.644 43.5202 248.873 43.5202 248.04V234.406H46.3089V260.392C46.3089 262.032 47.6128 263.34 49.2359 263.34H53.9639C55.6069 263.34 56.9107 262.032 56.9107 260.392V244.716H60.1735V265.656C60.1735 266.426 59.8574 267.141 59.324 267.675C58.7907 268.208 58.0597 268.525 57.3058 268.525H54.0627C53.6874 268.525 53.391 268.821 53.391 269.197V284.615H45.6373H45.6406Z" fill="#303030"/>
<path fill-rule="evenodd" clip-rule="evenodd" d="M25.9157 233.912C26.4293 234.488 27.1636 234.794 27.9142 234.794C33.6925 234.818 59.5647 234.814 67.46 234.814C68.8462 234.814 70.0117 233.77 70.15 232.393C70.5846 228.101 70.2092 219.949 60.1606 223.338C60.1606 223.338 64.296 209.438 59.0511 206.562C55.0343 204.365 51.6727 208.308 51.6727 208.308C51.6727 208.308 52.2258 193.792 40.0997 195.126C35.2927 195.64 30.8808 203.216 33.6695 210.792C33.6695 210.792 27.9142 207.465 23.6011 211.859C19.4658 216.069 19.3275 226.602 25.9157 233.912Z" fill="white"/>
<path fill-rule="evenodd" clip-rule="evenodd" d="M25.4227 234.361V234.381C26.0548 235.079 26.9668 235.491 27.9151 235.491H67.4609C69.2026 235.491 70.6447 234.177 70.8225 232.451C71.0003 230.85 71.0398 228.715 70.5459 226.805C70.2101 225.451 69.5944 224.219 68.6066 223.313C67.1415 222.002 64.8071 221.344 61.1492 222.329C61.7023 220.112 62.7329 215.247 62.2752 211.366C61.9987 208.942 61.1262 206.91 59.3877 205.964C56.4212 204.344 53.7708 205.697 52.3056 206.808C52.2464 205.862 52.1081 204.528 51.7525 203.112C51.1204 200.542 49.7935 197.627 47.2023 195.905C45.4606 194.752 43.1263 194.096 40.0215 194.445C37.9242 194.673 35.8664 196.109 34.3848 198.306C32.4652 201.158 31.4775 205.286 32.5838 209.578C30.4667 208.82 26.4104 208.039 23.1278 211.366C21.3663 213.152 20.2798 216.004 20.0625 219.292C19.7465 224.094 21.3301 229.826 25.4227 234.361ZM26.4335 233.459C22.6142 229.21 21.1326 223.87 21.4289 219.374C21.6067 216.459 22.5352 213.909 24.0991 212.328C28.0566 208.306 33.3378 211.386 33.3378 211.386C33.5748 211.528 33.8909 211.508 34.1082 211.324C34.3255 211.139 34.4045 210.829 34.3057 210.563C32.7221 206.251 33.5748 201.939 35.5141 199.067C36.7586 197.239 38.4213 195.984 40.1828 195.799C42.8925 195.493 44.9305 196.027 46.4549 197.031C48.7498 198.573 49.856 201.158 50.4322 203.438C51.0644 206.047 50.9854 208.287 50.9854 208.287C50.9854 208.573 51.1434 208.84 51.42 208.942C51.6965 209.044 51.9929 208.982 52.1904 208.758C52.1904 208.758 55.1569 205.203 58.7391 207.157C59.6281 207.648 60.1845 208.53 60.5401 209.621C60.9154 210.81 61.0537 212.226 61.034 213.705C60.9747 218.244 59.5096 223.152 59.5096 223.152C59.4503 223.396 59.5096 223.663 59.6873 223.827C59.8849 224.012 60.1417 224.074 60.3788 223.992C64.0597 222.74 66.3348 223.089 67.6979 224.341C68.4881 225.059 68.9655 226.067 69.2421 227.154C69.6767 228.9 69.6174 230.85 69.4791 232.309C69.3606 233.337 68.4914 234.114 67.4609 234.114H27.9151C27.3619 234.114 26.8088 233.87 26.4302 233.459H26.4335Z" fill="#303030"/>
<path fill-rule="evenodd" clip-rule="evenodd" d="M15.7876 219.028C15.7876 219.028 17.6874 211.251 13.6706 210.619C10.309 210.082 9.10065 215.507 15.7876 219.028Z" fill="white"/>
<path fill-rule="evenodd" clip-rule="evenodd" d="M15.4707 219.643C15.6484 219.742 15.8855 219.742 16.0633 219.643C16.2608 219.564 16.3991 219.406 16.4584 219.188C16.4584 219.188 17.1696 216.26 16.8337 213.766C16.5769 211.866 15.7044 210.242 13.7685 209.945C12.0267 209.669 10.7427 210.64 10.364 212.182C9.88993 214.142 11.0555 217.307 15.4674 219.643H15.4707ZM15.3126 217.983C13.5511 216.912 12.5041 215.707 11.9905 214.577C11.6547 213.806 11.5559 213.094 11.6942 212.498C11.9115 211.648 12.6029 211.135 13.5544 211.293C14.8615 211.49 15.3159 212.676 15.4739 213.944C15.6715 215.39 15.4739 216.991 15.3159 217.983H15.3126Z" fill="#303030"/>
<path fill-rule="evenodd" clip-rule="evenodd" d="M66.1634 217.717C66.1634 217.717 65.8605 207.417 71.0857 207.697C75.4646 207.928 75.5272 215.079 66.1634 217.717Z" fill="white"/>
<path fill-rule="evenodd" clip-rule="evenodd" d="M65.4888 217.731C65.4954 217.942 65.5843 218.142 65.7654 218.258C65.9201 218.396 66.1407 218.442 66.3383 218.38C72.403 216.68 74.7011 213.106 74.6254 210.537C74.5694 208.597 73.2689 207.121 71.1354 207.002C68.7154 206.877 67.2733 208.63 66.4568 210.876C65.3736 213.877 65.4921 217.731 65.4921 217.731H65.4888ZM66.8585 216.799C66.8881 215.553 67.0396 213.267 67.7376 211.334C68.3236 209.687 69.2982 208.28 71.0761 208.373C72.4129 208.448 73.236 209.354 73.2623 210.583C73.3216 212.628 71.4054 215.267 66.8585 216.799Z" fill="#303030"/>
<path fill-rule="evenodd" clip-rule="evenodd" d="M49.1023 242.737C49.2801 244.141 50.4884 245.195 51.891 245.195H78.4381C79.3468 245.195 80.1996 244.763 80.733 244.019C81.2663 243.294 81.4046 242.345 81.1281 241.499C80.3181 238.979 78.5171 236.38 74.4806 238.093C74.4806 238.093 75.7054 228.554 68.2874 227.664C65.5975 227.335 61.9955 229.585 61.8375 234.644C61.8375 234.644 58.8512 230.886 53.6689 233.159C48.9014 235.263 48.7039 239.888 49.099 242.737H49.1023Z" fill="white"/>
<path fill-rule="evenodd" clip-rule="evenodd" d="M48.4276 242.839C48.6647 244.575 50.1496 245.876 51.888 245.876H78.4351C79.5644 245.876 80.6115 245.339 81.2831 244.43C81.935 243.52 82.1128 242.345 81.777 241.271C81.2239 239.578 80.2361 237.885 78.5932 237.203C77.7042 236.811 76.5946 236.709 75.2316 237.101C75.2711 236.129 75.2316 234.604 74.8365 233.052C74.1451 230.309 72.4428 227.479 68.3668 226.985C65.6571 226.652 62.0551 228.635 61.2847 233.197C59.8986 232.166 57.1691 230.885 53.3926 232.539C48.2696 234.788 47.993 239.742 48.4276 242.839ZM49.7742 242.654C49.4186 240.012 49.5569 235.717 53.9491 233.797C58.598 231.732 61.3077 235.055 61.3077 235.055C61.4855 235.282 61.7818 235.365 62.0584 235.282C62.3152 235.2 62.5128 234.933 62.5128 234.663C62.6708 230.144 65.7954 228.059 68.2087 228.345C71.5703 228.737 72.9565 231.112 73.5096 233.385C74.1023 235.737 73.8059 238.01 73.8059 238.01C73.7862 238.237 73.8849 238.484 74.0825 238.629C74.2603 238.774 74.5369 238.813 74.7542 238.711C76.1403 238.132 77.2268 238.092 78.0598 238.464C79.3471 239.001 80.0583 240.385 80.4732 241.706C80.6905 242.345 80.5719 243.066 80.1768 243.626C79.7818 244.183 79.1298 244.512 78.4351 244.512H51.888C50.8212 244.512 49.9092 243.708 49.7709 242.654H49.7742Z" fill="#303030"/>
<path fill-rule="evenodd" clip-rule="evenodd" d="M0.687061 240.522C0.667307 241.237 0.957043 241.929 1.46408 242.443C1.95137 242.937 2.6362 243.233 3.35725 243.233H36.0284C37.3454 243.233 38.4813 242.265 38.6821 240.937C39.0443 238.404 38.9521 234.428 35.2909 232.627C35.2909 232.627 37.0951 221.088 27.7314 220.12C22.5885 219.583 20.2245 224.352 20.2608 229.181C20.2608 229.181 17.5906 223.819 13.982 225.897C10.4821 227.916 12.484 233.615 12.484 233.615C12.484 233.615 0.631089 231.517 0.683769 240.522H0.687061Z" fill="white"/>
<path fill-rule="evenodd" clip-rule="evenodd" d="M0 240.52C0 241.412 0.342416 242.282 0.974569 242.914C1.60672 243.55 2.45289 243.906 3.35502 243.906H36.0294C37.6888 243.906 39.1145 242.697 39.3482 241.053V241.033C39.7433 238.382 39.582 234.307 36.0294 232.248C36.1183 231.277 36.2467 228.961 35.687 226.566C34.91 223.322 32.8555 219.959 27.8016 219.442C22.9485 218.928 20.298 222.689 19.7021 227.103C19.2873 226.566 18.7638 226.033 18.1514 225.598C16.9068 224.728 15.3725 224.31 13.6407 225.302C12.034 226.23 11.4051 227.835 11.2602 229.419C11.1516 230.704 11.3689 231.972 11.5664 232.822C10.3943 232.703 8.40895 232.624 6.44335 233.019C4.49421 233.415 2.58129 234.287 1.3565 235.948C0.526794 237.058 -0.0131699 238.54 0.00329246 240.52H0ZM1.37296 240.539V240.52C1.3565 238.899 1.76805 237.67 2.43642 236.761C3.46367 235.374 5.09015 234.702 6.71333 234.366C9.52839 233.79 12.3764 234.287 12.3764 234.287C12.6101 234.327 12.8472 234.248 13.0085 234.05C13.1699 233.869 13.2061 233.612 13.1336 233.395C13.1336 233.395 12.4653 231.474 12.6299 229.538C12.7188 228.368 13.1336 227.163 14.309 226.487C15.8071 225.638 17.0879 226.349 18.0065 227.242C19.0337 228.23 19.6494 229.478 19.6494 229.478C19.7943 229.755 20.1202 229.913 20.4264 229.834C20.7326 229.755 20.95 229.478 20.95 229.159C20.9137 224.748 22.9518 220.315 27.66 220.789C31.9731 221.243 33.6852 224.132 34.3536 226.883C35.0384 229.775 34.6236 232.525 34.6236 232.525C34.5709 232.822 34.7125 233.118 34.9857 233.237C38.3243 234.88 38.3407 238.54 37.9983 240.836C37.8535 241.827 37.0238 242.558 36.0327 242.558C29.5565 242.558 10.1243 242.558 3.35831 242.539C2.81835 242.539 2.31131 242.321 1.93268 241.946C1.57051 241.57 1.3565 241.053 1.37296 240.539Z" fill="#303030"/>
<path fill-rule="evenodd" clip-rule="evenodd" d="M71.6052 285.442C71.8192 284.761 71.6677 284.016 71.2397 283.436C70.815 282.86 70.1466 282.527 69.419 282.527H30.9992C30.2716 282.527 29.6032 282.86 29.1785 283.436C28.7538 284.016 28.6023 284.761 28.813 285.442C30.5449 291.388 34.4925 304.814 36.1025 310.351C36.5273 311.797 37.8344 312.789 39.3522 312.789H61.0364C62.5246 312.789 63.8613 311.797 64.286 310.351C65.896 304.837 69.8437 291.388 71.6052 285.442Z" fill="#303030"/>
<path fill-rule="evenodd" clip-rule="evenodd" d="M202.047 285.472C202.047 285.472 225.766 280.442 227.922 280.205C230.079 279.948 244.638 288.598 244.638 288.598L242.264 293.782L232.492 290.04L240.72 297.146L236.351 306.728L224.462 304.231C224.462 304.231 214.887 310.664 204.361 306.586L202.047 285.472Z" fill="white"/>
<path fill-rule="evenodd" clip-rule="evenodd" d="M201.909 284.799C201.573 284.878 201.336 285.197 201.375 285.553L203.67 306.67C203.71 306.908 203.868 307.125 204.105 307.224C213.976 311.022 222.997 305.936 224.597 304.967L236.21 307.402C236.529 307.461 236.825 307.303 236.964 307.006L241.356 297.428C241.474 297.151 241.415 296.831 241.175 296.634L235.894 292.082L242.027 294.417C242.363 294.555 242.739 294.397 242.877 294.061L245.251 288.877C245.409 288.56 245.29 288.185 244.994 288.007C244.994 288.007 235.617 282.463 230.751 280.345C229.384 279.772 228.337 279.476 227.844 279.515C225.687 279.772 201.909 284.799 201.909 284.799ZM202.798 286.008C206.498 285.237 226.043 281.1 228.002 280.882C228.199 280.862 228.535 280.961 228.97 281.119C229.803 281.396 230.929 281.91 232.176 282.523C236.368 284.562 242.027 287.849 243.769 288.877L241.909 292.915L232.73 289.41C232.413 289.292 232.078 289.41 231.9 289.687C231.722 289.983 231.778 290.342 232.038 290.56L239.891 297.329L235.953 305.956L224.597 303.561C224.419 303.521 224.242 303.561 224.084 303.66C224.084 303.66 215.042 309.737 204.994 306.094L202.798 286.008Z" fill="#303030"/>
<path fill-rule="evenodd" clip-rule="evenodd" d="M194.454 312.309C185.67 322.639 113.664 318.367 101.696 315.138C89.1548 311.756 85.6911 306.133 85.4936 292.18C85.0787 263.941 98.828 201.024 104.07 194.255C109.311 187.486 117.938 194.255 117.938 194.255C142.131 216.34 138.176 275.061 138.176 275.061C138.176 275.061 183.398 277.93 190.48 281.297C191.274 281.672 191.926 282.305 192.499 283.158C195.129 283.237 199.423 283.415 202.369 283.751C203.874 284.087 205.043 285.295 205.3 286.837C206.011 291.172 207.157 300.019 206.11 306.927C205.892 308.271 204.941 309.4 203.657 309.875C201.757 310.566 198.553 311.578 194.458 312.309H194.454Z" fill="white"/>
<path fill-rule="evenodd" clip-rule="evenodd" d="M194.79 312.941C198.846 312.19 201.99 311.198 203.89 310.507C205.415 309.953 206.501 308.626 206.778 307.045C207.828 300.038 206.679 291.112 205.968 286.718C205.671 284.916 204.285 283.473 202.504 283.078H202.445C199.616 282.739 195.521 282.561 192.85 282.482C192.258 281.672 191.566 281.059 190.773 280.683C188.62 279.652 182.98 278.664 176.135 277.791C162.01 275.993 142.723 274.685 138.884 274.428C139.081 270.627 139.852 251.588 136.174 232.114C133.425 217.509 128.163 202.667 118.388 193.74C118.368 193.74 118.368 193.72 118.349 193.72C118.349 193.72 116.093 191.938 113.146 191.069C110.121 190.137 106.361 190.176 103.533 193.839C101.929 195.898 99.5354 203.062 97.0035 212.878C91.189 235.537 84.5218 272.389 84.8181 292.179C84.9169 299.324 85.8849 304.354 88.397 308.013C90.9289 311.696 95.0445 314.051 101.514 315.79C109.92 318.066 147.846 320.859 172.868 318.761C179.338 318.224 184.955 317.355 188.972 316.07C191.662 315.217 193.66 314.169 194.786 312.941H194.79ZM194.335 311.636C194.177 311.676 194.039 311.755 193.921 311.874C192.933 313.04 191.073 313.972 188.56 314.782C184.603 316.027 179.104 316.88 172.753 317.414C147.905 319.492 110.219 316.742 101.873 314.486C95.7985 312.842 91.9035 310.684 89.5297 307.242C87.136 303.738 86.2866 298.968 86.1878 292.159C85.8915 272.449 92.539 235.777 98.3337 213.214C100.787 203.675 103.062 196.668 104.606 194.669C107.019 191.563 110.183 191.602 112.778 192.373C115.31 193.127 117.288 194.61 117.486 194.768C127.06 203.516 132.144 218.062 134.854 232.371C138.91 253.963 137.484 275.021 137.484 275.021C137.484 275.199 137.544 275.377 137.662 275.515C137.781 275.654 137.939 275.736 138.136 275.756C138.136 275.756 160.252 277.159 175.98 279.138C182.627 279.988 188.106 280.921 190.203 281.909C190.878 282.225 191.451 282.798 191.925 283.533C192.064 283.71 192.261 283.829 192.478 283.829C195.089 283.908 199.323 284.086 202.25 284.422C203.479 284.699 204.407 285.69 204.624 286.935C205.339 291.231 206.465 299.979 205.438 306.827C205.24 307.934 204.486 308.843 203.439 309.222C201.539 309.914 198.395 310.902 194.339 311.636H194.335Z" fill="#303030"/>
<path fill-rule="evenodd" clip-rule="evenodd" d="M238.865 299.611L230.456 294.331C230.146 294.13 229.718 294.229 229.524 294.545C229.327 294.865 229.409 295.286 229.735 295.487L238.131 300.767C238.457 300.965 238.881 300.873 239.079 300.553C239.276 300.234 239.178 299.812 238.865 299.611Z" fill="#303030"/>
<path fill-rule="evenodd" clip-rule="evenodd" d="M237.213 303.242L228.396 299.283C228.053 299.128 227.642 299.283 227.497 299.625C227.332 299.968 227.481 300.373 227.823 300.525L236.657 304.484C236.986 304.639 237.394 304.484 237.559 304.141C237.707 303.799 237.559 303.394 237.213 303.242Z" fill="#303030"/>
<path fill-rule="evenodd" clip-rule="evenodd" d="M192.187 287.689C192.187 287.689 193.955 296.886 193.399 307.904C193.382 308.28 193.675 308.593 194.054 308.622C194.429 308.639 194.739 308.346 194.772 307.97C195.312 296.79 193.53 287.426 193.53 287.426C193.448 287.067 193.102 286.82 192.727 286.886C192.352 286.952 192.121 287.311 192.187 287.689Z" fill="#303030"/>
<path fill-rule="evenodd" clip-rule="evenodd" d="M138.032 274.397C138.032 274.397 128.198 276.163 118.317 287.099C118.073 287.376 118.086 287.8 118.366 288.064C118.643 288.308 119.087 288.291 119.331 288.015C128.836 277.49 138.276 275.738 138.276 275.738C138.635 275.672 138.882 275.313 138.816 274.938C138.75 274.575 138.391 274.332 138.032 274.397Z" fill="#303030"/>
<path fill-rule="evenodd" clip-rule="evenodd" d="M165.189 166.091C165.189 166.091 152.609 159.332 156.026 150.323C158.841 142.882 171.962 145.26 171.962 145.26L204.636 156.031C204.636 156.031 218.59 169.734 201.558 173.963L165.189 166.091Z" fill="#90CE05"/>
<path fill-rule="evenodd" clip-rule="evenodd" d="M204.659 159.997L201.574 173.97C189.171 176.206 177.064 173.061 165.215 166.134L168.221 147.688L184.463 149.944L204.659 159.997Z" fill="white"/>
<path fill-rule="evenodd" clip-rule="evenodd" d="M205.313 160.136C205.392 159.839 205.234 159.523 204.958 159.385L184.762 149.332C184.702 149.292 184.623 149.272 184.541 149.272L168.303 147.016C167.947 146.976 167.611 147.214 167.552 147.589L164.526 166.015C164.487 166.292 164.625 166.569 164.862 166.707C176.889 173.733 189.137 176.899 201.698 174.642C201.975 174.603 202.192 174.385 202.251 174.109L205.317 160.136H205.313ZM203.871 160.373L201.02 173.377C189.052 175.397 177.403 172.366 165.949 165.778L168.777 148.462L184.245 150.6L203.871 160.376V160.373Z" fill="#303030"/>
<path fill-rule="evenodd" clip-rule="evenodd" d="M168.972 123.534C168.972 123.534 164.527 119.956 159.144 122.98C153.774 126.001 155.039 132.269 156.576 134.996C158.134 137.727 162.911 140.043 166.625 140.487C166.625 140.487 167.415 150.175 173.407 156.292C179.4 162.409 191.865 166.895 203.988 160.847C209.078 158.301 212.196 152.764 213.849 148.469C215.478 144.17 220.216 132.628 220.216 132.628L213.335 102.627L181.543 99.6328L171.679 123.165L168.976 123.53L168.972 123.534Z" fill="white"/>
<path fill-rule="evenodd" clip-rule="evenodd" d="M169.145 122.82C168.111 122.092 163.844 119.559 158.81 122.382C153.006 125.64 154.316 132.389 155.992 135.331C157.549 138.075 162.175 140.469 166.001 141.089C166.274 143.249 167.624 151.362 172.909 156.768C179.065 163.043 191.857 167.661 204.279 161.455C209.54 158.826 212.784 153.138 214.469 148.707C216.119 144.415 220.84 132.883 220.84 132.883C220.896 132.755 220.896 132.61 220.876 132.472L213.992 102.474C213.936 102.187 213.689 101.973 213.399 101.947L181.607 98.9526C181.314 98.9229 181.031 99.0909 180.909 99.3676C180.909 99.3676 172.431 119.582 171.193 122.537L169.142 122.814L169.145 122.82ZM168.539 124.062C168.697 124.178 168.885 124.23 169.063 124.207L171.766 123.842C171.997 123.812 172.211 123.654 172.286 123.433C172.286 123.433 180.606 103.653 181.979 100.362L212.767 103.264C212.767 103.264 218.894 129.925 219.484 132.574C218.848 134.125 214.713 144.257 213.198 148.223C211.618 152.387 208.605 157.769 203.663 160.236C191.883 166.129 179.721 161.771 173.893 155.812C168.065 149.86 167.295 140.433 167.295 140.433C167.269 140.11 167.018 139.85 166.689 139.814C164.565 139.554 162.05 138.651 160.065 137.403C158.804 136.602 157.743 135.667 157.174 134.659C155.735 132.146 154.52 126.355 159.488 123.571C164.437 120.788 168.536 124.066 168.536 124.066L168.539 124.062Z" fill="#303030"/>
<path fill-rule="evenodd" clip-rule="evenodd" d="M168.943 123.44C168.943 123.44 169.401 128.677 170.527 129.827C171.653 130.98 175.462 121.216 176.717 117.191C176.717 117.191 181.405 114.197 183.858 110.649C186.311 107.102 189.156 106.054 191.645 110.488C191.645 110.488 197.084 104.918 201.121 104.964C205.177 105.007 206.158 108.261 207.376 114.227C208.618 120.189 210.267 129.059 220.125 132.623L215.907 142.956C215.907 142.956 225.939 140.216 228.389 126.391L230.917 129.273C230.917 129.273 234.325 101.232 218.979 87.3053C203.616 73.3819 182.838 78.8893 176.865 84.4989C176.865 84.4989 161.341 84.4198 156.669 99.506C151.997 114.592 155.81 126.549 155.81 126.549C155.81 126.549 159.705 118.347 168.94 123.44H168.943Z" fill="#303030"/>
<path fill-rule="evenodd" clip-rule="evenodd" d="M159.64 127.15C159.64 127.15 163.397 129.123 166.88 133.435C167.117 133.728 167.539 133.774 167.832 133.537C168.125 133.3 168.174 132.872 167.937 132.579C164.26 128.016 160.272 125.941 160.272 125.941C159.943 125.767 159.528 125.895 159.357 126.228C159.186 126.561 159.314 126.972 159.644 127.15H159.64Z" fill="#303030"/>
<path fill-rule="evenodd" clip-rule="evenodd" d="M161.158 132.926C161.158 132.926 163.416 131.523 165.105 130.979C165.468 130.864 165.668 130.479 165.547 130.123C165.445 129.761 165.056 129.566 164.694 129.682C162.883 130.265 160.44 131.767 160.44 131.767C160.107 131.968 160.019 132.386 160.206 132.705C160.41 133.025 160.838 133.124 161.154 132.926H161.158Z" fill="#303030"/>
<path fill-rule="evenodd" clip-rule="evenodd" d="M199.321 138.858L199.305 145.258C199.301 145.634 199.614 145.94 199.993 145.94C200.352 145.943 200.671 145.637 200.674 145.262L200.691 138.862C200.694 138.486 200.381 138.18 200.003 138.18C199.627 138.18 199.324 138.483 199.321 138.858Z" fill="#303030"/>
<path fill-rule="evenodd" clip-rule="evenodd" d="M186.295 123.586C186.295 123.586 192.267 120.642 196.376 126.136C196.597 126.436 197.022 126.502 197.331 126.274C197.624 126.05 197.693 125.622 197.453 125.322C192.662 118.906 185.699 122.364 185.699 122.364C185.36 122.532 185.218 122.941 185.389 123.277C185.544 123.616 185.959 123.754 186.295 123.586Z" fill="#303030"/>
<path fill-rule="evenodd" clip-rule="evenodd" d="M196.418 150.875C196.418 150.875 190.031 152.762 186.916 146.649C186.748 146.313 186.343 146.181 185.998 146.352C185.672 146.524 185.53 146.935 185.715 147.271C189.346 154.409 196.797 152.183 196.797 152.183C197.159 152.074 197.37 151.695 197.258 151.336C197.162 150.977 196.777 150.77 196.418 150.878V150.875Z" fill="#303030"/>
<path fill-rule="evenodd" clip-rule="evenodd" d="M206.421 127.476C206.421 127.476 208.838 126.32 211.564 126.781C211.949 126.844 212.295 126.593 212.351 126.221C212.41 125.849 212.163 125.496 211.795 125.434C208.647 124.9 205.822 126.244 205.822 126.244C205.483 126.406 205.341 126.814 205.496 127.153C205.667 127.493 206.066 127.637 206.421 127.473V127.476Z" fill="#303030"/>
<path d="M192.282 134.404C193.464 134.242 194.29 133.155 194.132 131.976C193.971 130.794 192.884 129.967 191.706 130.125C190.524 130.286 189.697 131.373 189.855 132.552C190.017 133.735 191.103 134.562 192.282 134.404Z" fill="#303030"/>
<path d="M210.884 137.685C212.066 137.524 212.893 136.437 212.734 135.257C212.573 134.075 211.487 133.248 210.305 133.406C209.126 133.564 208.296 134.655 208.458 135.834C208.619 137.013 209.705 137.843 210.884 137.685Z" fill="#303030"/>
<path fill-rule="evenodd" clip-rule="evenodd" d="M157.733 160.639C157.733 160.639 160.66 164.681 164.885 166.746C165.211 166.911 165.622 166.762 165.783 166.42C165.965 166.094 165.816 165.682 165.474 165.521C161.546 163.607 158.833 159.842 158.833 159.842C158.619 159.549 158.194 159.483 157.885 159.694C157.575 159.924 157.51 160.349 157.737 160.642L157.733 160.639Z" fill="#303030"/>
<path fill-rule="evenodd" clip-rule="evenodd" d="M201.577 174.649C201.577 174.649 204.883 174.534 208.04 171.767C208.32 171.52 208.353 171.078 208.106 170.802C207.859 170.525 207.434 170.489 207.141 170.736C204.392 173.157 201.528 173.288 201.528 173.288C201.152 173.305 200.859 173.618 200.876 173.993C200.892 174.369 201.202 174.665 201.577 174.649Z" fill="#303030"/>
</svg>
